<svg width="436" height="60" viewBox="0 0 436 60" fill="none" xmlns="http://www.w3.org/2000/svg">
<path fill-rule="evenodd" clip-rule="evenodd" d="M20 29.16V21H26.62C29.03 21 31.38 22.27 31.38 25.07C31.38 27.87 29 29.16 26.62 29.16H20ZM30 54.29C26.7805 54.3003 23.591 53.6698 20.6175 52.4354C17.644 51.201 14.9458 49.3874 12.68 47.1H20V36.71H24.17L31.08 47.1H42.08L34 35.35C38 33.68 41.07 30.41 41.07 25.1C41.07 16.01 34.37 12.79 26.6 12.79H12.68C15.5024 9.95088 18.9815 7.85176 22.8091 6.67861C26.6367 5.50547 30.6945 5.29453 34.6231 6.06449C38.5516 6.83445 42.2296 8.56153 45.3312 11.0927C48.4328 13.6239 50.8621 16.881 52.404 20.5755C53.9459 24.2699 54.5527 28.2877 54.1707 32.2727C53.7887 36.2578 52.4296 40.0871 50.2139 43.4213C47.9982 46.7556 44.9943 49.4919 41.4684 51.3877C37.9425 53.2835 34.0033 54.2804 30 54.29ZM5.61001 30C5.59106 24.7036 7.30875 19.547 10.5 15.32V44.58C7.32943 40.3803 5.61287 35.2622 5.61001 30ZM30 0C24.0666 0 18.2664 1.75947 13.3329 5.05591C8.39943 8.35235 4.55426 13.0377 2.28363 18.5195C0.0129986 24.0013 -0.581102 30.0333 0.576455 35.8527C1.73401 41.6721 4.59123 47.0176 8.78681 51.2132C12.9824 55.4088 18.3279 58.266 24.1473 59.4236C29.9667 60.5811 35.9987 59.987 41.4805 57.7164C46.9623 55.4458 51.6477 51.6006 54.9441 46.6671C58.2405 41.7336 60 35.9334 60 30C60 22.0435 56.8393 14.4129 51.2132 8.7868C45.5871 3.16071 37.9565 0 30 0V0Z" fill="#ED1C24"/>
<path d="M288 7.30999L287.09 17.05C282.76 15.75 268.21 11.48 268.71 19.64C269.17 27.14 290.38 23.44 290.38 38.78C290.38 56.6 268.58 56.39 256.2 52.85L257.15 42.57C261.75 44.66 277.72 48.44 277.59 40.72C277.48 33.9 255.34 35.56 255.84 20.23C256.38 3.78998 275.84 5.12999 288 7.30999Z" fill="white"/>
<path d="M153 36.4801V54.0501H142.37V50.2101C140.11 52.1601 139.29 52.7601 137.59 53.4101C135.291 54.3049 132.847 54.7693 130.38 54.7801C125.83 54.7801 123.96 53.7801 121.79 51.7801C119.62 49.7801 119 47.2001 119 44.0001C118.94 42.2638 119.334 40.5419 120.143 39.0041C120.951 37.4662 122.146 36.1655 123.61 35.2301C126.31 33.5501 130.37 33.0201 137.52 33.0201C138.39 33.0201 138.99 33.0201 139.86 33.0201C140.092 33.0133 140.32 32.9539 140.526 32.8465C140.732 32.7392 140.911 32.5865 141.05 32.4001C141.64 31.6401 140.72 29.4001 139.29 28.4001C137.86 27.4001 136.41 27.2901 133.68 27.2901C131.688 27.3078 129.703 27.5391 127.76 27.9801C125.826 28.5187 123.937 29.2074 122.11 30.0401L122 22.5301C124.377 21.3664 126.904 20.5417 129.51 20.0801C131.931 19.6682 134.384 19.4741 136.84 19.5001C142.43 19.5001 146.33 21.0801 148.94 23.8101C151.55 26.5401 153 30.1301 153 36.4801ZM136.38 39.2601C134.29 39.2601 132.54 39.2001 131.57 39.7901C130.967 40.1172 130.475 40.6159 130.157 41.2231C129.838 41.8302 129.707 42.5183 129.78 43.2001C129.74 43.7505 129.818 44.303 130.01 44.8205C130.201 45.338 130.501 45.8085 130.89 46.2001C131.894 46.855 133.109 47.1051 134.29 46.9001C136.54 46.6701 137.94 46.1801 139.29 44.6901C140.499 43.3752 141.323 41.7525 141.67 40.0001L141.9 39.1901H136.42L136.38 39.2601Z" fill="white"/>
<path d="M365.19 36.4001V54.0001H354.56V50.1201C352.3 52.1201 351.47 52.6801 349.77 53.3301C347.471 54.2222 345.026 54.6832 342.56 54.6901C338.02 54.6901 336.15 53.6901 333.98 51.6901C331.81 49.6901 331.13 47.1401 331.19 43.9201C331.27 40.1601 332.77 37.0201 335.81 35.1401C338.51 33.4601 342.57 32.9401 349.71 32.9401H352.06C352.29 32.9359 352.517 32.8786 352.721 32.7728C352.926 32.6671 353.103 32.5156 353.24 32.3301C353.84 31.5701 352.92 29.3301 351.49 28.3301C350.06 27.3301 348.6 27.2201 345.87 27.2201C343.881 27.2378 341.9 27.4691 339.96 27.9101C338.018 28.4578 336.123 29.1566 334.29 30.0001L334.12 22.4801C336.496 21.309 339.024 20.4744 341.63 20.0001C344.054 19.5878 346.511 19.3937 348.97 19.4201C354.56 19.4201 358.46 21.0001 361.06 23.7301C363.66 26.4601 365.19 30.0501 365.19 36.4001ZM348.57 39.1801C346.48 39.1801 344.73 39.1101 343.75 39.7001C343.158 40.0367 342.678 40.5386 342.367 41.1443C342.056 41.7499 341.928 42.4331 342 43.1101C341.962 43.6611 342.042 44.2139 342.235 44.7314C342.428 45.2488 342.73 45.7189 343.12 46.1101C344.12 46.7656 345.333 47.0126 346.51 46.8001C348.77 46.5801 350.17 46.0901 351.51 44.6001C352.716 43.2987 353.54 41.6896 353.89 39.9501L354.12 39.1401H348.64L348.57 39.1801Z" fill="white"/>
<path d="M183 6.20996H194.66V54H183.9V49.2C182.71 51.381 180.765 53.0525 178.43 53.9C176.114 54.7521 173.631 55.05 171.18 54.77C166.976 54.3032 163.122 52.2108 160.44 48.94C158.73 46.94 156.92 42.37 156.92 37.17C156.92 31.97 157.92 27.78 160.68 24.74C162.062 23.1505 163.758 21.8644 165.662 20.9626C167.565 20.0608 169.635 19.5628 171.74 19.5C175.31 19.39 180.6 19.92 182.99 23.78V6.20996H183ZM175.73 28.43C174.82 28.4264 173.923 28.6505 173.121 29.0819C172.32 29.5133 171.638 30.1382 171.14 30.9C169.871 32.786 169.24 35.029 169.34 37.3C169.22 39.5358 169.854 41.7472 171.14 43.58C171.701 44.3315 172.437 44.9352 173.284 45.3394C174.13 45.7435 175.062 45.9359 176 45.9C176.949 45.9405 177.895 45.7506 178.755 45.3467C179.615 44.9427 180.365 44.3365 180.94 43.58C182.242 41.6979 182.875 39.4342 182.74 37.15C182.859 34.8758 182.192 32.6298 180.85 30.79C180.248 30.0229 179.473 29.4092 178.588 28.9991C177.704 28.5889 176.734 28.3939 175.76 28.43H175.73Z" fill="white"/>
<path d="M294.45 6.16992H306.28V23.2599C307.2 21.6868 308.603 20.4524 310.28 19.7399C314.19 17.8799 321.28 18.8799 324.63 23.2299C326.54 25.7599 327 30.0799 327 34.8099V53.9999H315.72V37.1499C315.72 34.5699 315.84 32.0199 314.95 30.4299C314.06 28.8399 312.42 28.6499 311.07 28.6599C310.281 28.569 309.483 28.7096 308.772 29.0648C308.062 29.42 307.471 29.9742 307.07 30.6599C306.07 32.3299 306.26 35.5499 306.26 38.2099V53.9999H294.45V6.16992Z" fill="white"/>
<path d="M397.61 21.29L396.61 29.73C395.635 29.1226 394.587 28.642 393.49 28.3C392.417 28.0115 391.311 27.8636 390.2 27.86C384.45 27.86 381.2 31.5 381.2 37.13C381.2 39.92 381.89 42.05 383.66 43.72C384.607 44.5685 385.714 45.2182 386.916 45.6304C388.119 46.0427 389.392 46.2092 390.66 46.12C391.879 46.1272 393.093 45.9691 394.27 45.65C395.419 45.3096 396.548 44.9023 397.65 44.43L398.07 53.43C394.627 54.53 391.005 54.9577 387.4 54.69C381.6 54.45 377.47 52.94 374.18 49.63C370.6 46.03 369.28 42.32 369.29 37.18C369.29 31.71 370.88 27.63 374.29 24.26C377.7 20.89 382.34 19.53 388.29 19.53C389.793 19.5345 391.293 19.6785 392.77 19.96C394.417 20.2738 396.039 20.7117 397.62 21.27L397.61 21.29Z" fill="white"/>
<path d="M234.43 19.78C240.43 19.78 245.143 21.33 248.57 24.43C251.997 27.53 253.693 31.8267 253.66 37.32C253.66 42.78 251.963 47.0567 248.57 50.15C245.177 53.2434 240.463 54.7934 234.43 54.8C228.43 54.8 223.733 53.25 220.34 50.15C216.947 47.05 215.253 42.7734 215.26 37.32C215.26 31.82 216.953 27.5234 220.34 24.43C223.727 21.3367 228.423 19.7867 234.43 19.78ZM234.18 27.55C233.165 27.535 232.161 27.7741 231.262 28.2457C230.362 28.7172 229.595 29.4063 229.03 30.25C227.612 32.3564 226.911 34.8637 227.03 37.4C226.916 39.9171 227.617 42.4037 229.03 44.49C229.612 45.3194 230.385 45.9965 231.284 46.4639C232.183 46.9313 233.182 47.1753 234.195 47.1753C235.208 47.1753 236.207 46.9313 237.106 46.4639C238.005 45.9965 238.778 45.3194 239.36 44.49C240.757 42.3875 241.441 39.8911 241.31 37.37C241.435 34.8339 240.752 32.3235 239.36 30.2C238.79 29.355 238.017 28.6667 237.112 28.1984C236.207 27.7301 235.199 27.4968 234.18 27.52V27.55Z" fill="white"/>
<path d="M402.38 6.16992H413.8V33.0099L422.71 20.2799H435.92L423.9 35.6399L435.74 53.9899H422.11L413.8 38.1399L413.67 53.9899H402.38V6.16992Z" fill="white"/>
<path d="M91.92 15.3201V25.7201L95.8 25.6301C98.18 25.5701 100.11 25.6301 101.32 24.8301C102.53 24.0301 102.89 22.9401 102.95 20.5201C102.95 18.7001 102.66 16.6801 101.31 16.0801C99.96 15.4801 97.42 15.4501 94.55 15.3801L91.92 15.3201ZM78.77 6.11011H97.19C103.32 6.11011 107.85 6.85011 110.81 8.91011C113.77 10.9701 115.15 13.9801 115.38 18.1101C115.61 22.4401 114.51 24.1601 112.83 26.1101C110.651 28.2113 107.946 29.6863 105 30.3801C109.44 31.7501 110.5 33.6301 111.88 37.5801C112.05 38.0501 112.2 38.5801 112.36 39.0101L117.61 54.0101H104.35L100.61 40.8901C100.01 38.7601 99.43 37.5001 98.16 36.7301C96.7835 35.9753 95.2289 35.6057 93.66 35.6601L91.8 35.5501V54.0001H78.8V6.11011H78.77Z" fill="white"/>
<path d="M199.26 54.0199H211.09V20.6799H199.26V54.0199Z" fill="white"/>
<path d="M199.26 15.18H211.09V6.27002H199.26V15.18Z" fill="white"/>
</svg>
